# xmcd CD database file
#
# Track frame offsets:
#	150
#	16445
#	29950
#	49715
#	64600
#	81565
#	98307
#	114700
#	130615
#	148075
#	158262
#	174075
#	189570
#	205697
#	223425
#
# Disc length: 3195 seconds
#
# Revision: 13
# Processed by: cddbd v1.5.2PL0 Copyright (c) Steve Scherf et al.
# Submitted via: CDex 1.70beta3
#
DISCID=ce0c790f
DTITLE=Various Artist - 青春歌年鑑’77 BEST30 Disc2
DYEAR=2000
DGENRE=歌謡曲
TTITLE0=山口百恵/秋桜
TTITLE1=キャンディーズ/暑中お見舞い申し上げます
TTITLE2=太田裕美/九月の雨
TTITLE3=尾崎亜美/マイ・ピュア・レディ
TTITLE4=キャンディーズ/哀愁のシンフォニー
TTITLE5=西城秀樹/ブーメランストリート
TTITLE6=新沼謙治/ヘッドライト
TTITLE7=内藤やす子/想い出ぼろぼろ
TTITLE8=しばたはつみ/マイ・ラグジュアリー・ナイト
TTITLE9=ささきいさお/宇宙戦艦ヤマト
TTITLE10=ビューティ・ペア/かけめぐる青春
TTITLE11=杉　良太郎/すきま風
TTITLE12=Char/気絶するほど悩ましい
TTITLE13=チューリップ/ブルー・スカイ
TTITLE14=清水由貴子/お元気ですか
EXTD=YEAR: 2000
EXTT0=
EXTT1=
EXTT2=
EXTT3=
EXTT4=
EXTT5=
EXTT6=
EXTT7=
EXTT8=
EXTT9=
EXTT10=
EXTT11=
EXTT12=
EXTT13=
EXTT14=
PLAYORDER=
